<svg width="985" height="1260" xmlns="http://www.w3.org/2000/svg" xmlns:xlink="http://www.w3.org/1999/xlink" overflow="hidden"><defs><clipPath id="clip0"><rect x="1375" y="1031" width="985" height="1260"/></clipPath><clipPath id="clip1"><path d="M1730.16 1518.53 1512.5 1212.12 1761.57 1035.2 1979.22 1341.6Z" fill-rule="nonzero" clip-rule="nonzero"/></clipPath><clipPath id="clip2"><path d="M1730.16 1518.53 1512.5 1212.12 1761.57 1035.2 1979.22 1341.6Z" fill-rule="evenodd" clip-rule="evenodd"/></clipPath><clipPath id="clip3"><path d="M1730.16 1518.53 1512.5 1212.12 1761.57 1035.2 1979.22 1341.6Z" fill-rule="evenodd" clip-rule="evenodd"/></clipPath><clipPath id="clip4"><path d="M1670.16 1591.29 2095.96 1850.68 2355.35 1424.88 1929.55 1165.49Z" fill-rule="nonzero" clip-rule="nonzero"/></clipPath><clipPath id="clip5"><path d="M1670.16 1591.29 2095.96 1850.68 2355.35 1424.88 1929.55 1165.49Z" fill-rule="evenodd" clip-rule="evenodd"/></clipPath><clipPath id="clip6"><path d="M1670.16 1591.29 2095.96 1850.68 2355.35 1424.88 1929.55 1165.49Z" fill-rule="evenodd" clip-rule="evenodd"/></clipPath></defs><g clip-path="url(#clip0)" transform="translate(-1375 -1031)"><path d="M2092.8 1536.58C2039.29 1485.38 1962.65 1476.1 1900.36 1513.31 1867.31 1531.88 1836.45 1554.88 1808.51 1581.8 1764.69 1625.34 1733.75 1682.44 1719.74 1745.66 1718.23 1752.58 1712.32 1757.2 1705.9 1756.46 1705.47 1756.42 1705.04 1756.34 1704.62 1756.24 1698.76 1754.92 1694.49 1749.32 1694.34 1742.71 1690.9 1644.01 1732.92 1550.07 1806 1493.08 1829.63 1473.31 1858.58 1462.85 1888.23 1463.37L1899.22 1463.55C1888.28 1461 1851.82 1457.48 1822.58 1448.05 1796.73 1429.23 1767.64 1407.25 1723.77 1407.01 1557.93 1406.13 1422.63 1517.37 1381.82 1737.1 1353.48 1889.67 1414.63 2041.13 1543.96 2168.98 1627.23 2251.24 1639.04 2275.02 1675.8 2283.33 1740.73 2292.82 1806.73 2287.82 1869.88 2268.63 2018.81 2220.86 2157.61 2093.16 2189.81 1919.99 2220.53 1754.43 2179.99 1622.2 2092.8 1536.58Z" fill="#C55A11" fill-rule="evenodd" fill-opacity="1"/><g clip-path="url(#clip1)"><g clip-path="url(#clip2)"><g clip-path="url(#clip3)"><path d="M144.799 63.6477C95.4716 63.6477 55.6918 103.428 55.6918 152.755 55.6918 168.348 59.8289 182.987 66.8301 195.717 73.5131 188.716 80.8326 181.714 88.7886 174.077 108.838 155.3 132.387 136.206 152.118 122.204 153.391 121.249 154.664 120.612 156.255 120.612 159.756 120.612 162.62 123.477 162.62 126.977 162.62 129.205 161.665 130.796 160.074 132.069L160.074 132.069C131.751 152.436 94.1986 183.942 68.7396 212.583 68.7396 212.583 65.2389 216.402 63.6477 218.312 49.327 235.178 39.7798 250.454 39.7798 261.274L58.8742 261.274C58.8742 254.273 70.0125 238.997 86.8792 220.858 102.473 234.224 122.522 242.18 144.799 242.18 160.711 242.18 175.986 238.043 189.034 230.405 257.137 192.534 265.729 122.84 265.729 44.5534 265.729 44.5534 191.58 64.9207 144.799 63.6477Z" fill="#548235" fill-rule="nonzero" fill-opacity="1" transform="matrix(-0.712439 -1.00293 0.815244 -0.579117 1730.16 1518.53)"/></g></g></g><g clip-path="url(#clip4)"><g clip-path="url(#clip5)"><g clip-path="url(#clip6)"><path d="M236.309 103.872C155.808 103.872 90.8882 168.792 90.8882 249.293 90.8882 274.742 97.6399 298.633 109.066 319.407 119.972 307.981 131.918 296.555 144.902 284.091 177.622 253.448 216.054 222.287 248.255 199.435 250.332 197.877 252.41 196.838 255.006 196.838 260.719 196.838 265.394 201.512 265.394 207.225 265.394 210.861 263.836 213.458 261.239 215.535L261.239 215.535C215.016 248.774 153.731 300.191 112.182 346.933 112.182 346.933 106.469 353.166 103.872 356.282 80.501 383.808 64.9202 408.737 64.9202 426.396L96.0818 426.396C96.0818 414.97 114.259 390.04 141.786 360.437 167.234 382.25 199.954 395.234 236.309 395.234 262.277 395.234 287.207 388.482 308.501 376.018 419.644 314.214 433.667 200.473 433.667 72.7106 433.667 72.7106 312.656 105.95 236.309 103.872Z" fill="#548235" fill-rule="nonzero" fill-opacity="1" transform="matrix(0.854015 0.520248 0.520248 -0.854015 1670.16 1591.29)"/></g></g></g><path d="M1862.51 1426.65C1868.82 1335.31 1932.32 1256.11 2024.32 1224.86" stroke="#548235" stroke-width="27.5" stroke-linecap="butt" stroke-linejoin="miter" stroke-miterlimit="8" stroke-opacity="1" fill="none" fill-rule="evenodd"/></g></svg>