<svg width="985" height="1260" xmlns="http://www.w3.org/2000/svg" overflow="hidden"><defs><clipPath id="clip0"><path d="M1375 1031h985v1260h-985z"/></clipPath><clipPath id="clip1"><path d="m1730.16 1518.53-217.66-306.41 249.07-176.92 217.65 306.4Z"/></clipPath><clipPath id="clip2"><path d="m1730.16 1518.53-217.66-306.41 249.07-176.92 217.65 306.4Z" fill-rule="evenodd" clip-rule="evenodd"/></clipPath><clipPath id="clip3"><path d="m1730.16 1518.53-217.66-306.41 249.07-176.92 217.65 306.4Z" fill-rule="evenodd" clip-rule="evenodd"/></clipPath><clipPath id="clip4"><path d="m1670.16 1591.29 425.8 259.39 259.39-425.8-425.8-259.39Z"/></clipPath><clipPath id="clip5"><path d="m1670.16 1591.29 425.8 259.39 259.39-425.8-425.8-259.39Z" fill-rule="evenodd" clip-rule="evenodd"/></clipPath><clipPath id="clip6"><path d="m1670.16 1591.29 425.8 259.39 259.39-425.8-425.8-259.39Z" fill-rule="evenodd" clip-rule="evenodd"/></clipPath></defs><g clip-path="url('#clip0')" transform="translate(-1375 -1031)"><path d="M2092.8 1536.58c-53.51-51.2-130.15-60.48-192.44-23.27-33.05 18.57-63.91 41.57-91.85 68.49-43.82 43.54-74.76 100.64-88.77 163.86-1.51 6.92-7.42 11.54-13.84 10.8-.43-.04-.86-.12-1.28-.22-5.86-1.32-10.13-6.92-10.28-13.53-3.44-98.7 38.58-192.64 111.66-249.63 23.63-19.77 52.58-30.23 82.23-29.71l10.99.18c-10.94-2.55-47.4-6.07-76.64-15.5-25.85-18.82-54.94-40.8-98.81-41.04-165.84-.88-301.14 110.36-341.95 330.09-28.34 152.57 32.81 304.03 162.14 431.88 83.27 82.26 95.08 106.04 131.84 114.35 64.93 9.49 130.93 4.49 194.08-14.7 148.93-47.77 287.73-175.47 319.93-348.64 30.72-165.56-9.82-297.79-97.01-383.41Z" fill="#C55A11" fill-rule="evenodd"/><g clip-path="url('#clip1')"><g clip-path="url('#clip2')"><g clip-path="url('#clip3')"><path d="M1678.888 1336.447c35.143 49.472 95.914 66.331 136.128 37.765 12.712-9.03 21.699-21.657 27.089-36.051-10.469-2.648-21.392-5.934-33.286-9.49-29.592-9.235-61.936-21.795-87.408-33.475-1.685-.724-3.111-1.632-4.245-3.227-2.494-3.512-2.199-8.043.654-10.07 1.817-1.29 3.794-1.254 5.965-.395 36.783 16.61 89.222 36.027 130.71 44.975 0 0 5.607 1.299 8.297 1.789 23.953 4.595 43.208 5.323 52.03-.943l-13.604-19.15c-5.708 4.054-26.097 1.73-52.901-4.681-.213-23.38-8.01-48.096-23.882-70.438-11.336-15.958-25.591-28.882-41.114-37.545-79.393-46.371-142.332-14.627-206.155 30.71 0 0 69.431 62.571 101.722 110.226Z" fill="#548235"/></g></g></g><g clip-path="url('#clip4')"><g clip-path="url('#clip5')"><g clip-path="url('#clip6')"><path d="M1926.01 1625.521c-68.748-41.88-90.416-131.097-48.536-199.847 13.24-21.733 31.435-38.624 52-50.421 3.37 15.432 7.628 31.405 12.232 48.804 12.002 43.192 28.612 89.798 44.223 126.067.963 2.41 2.198 4.38 4.415 5.73 4.879 2.972 11.303 1.412 14.275-3.467 1.891-3.105 1.912-6.133.775-9.258-22.183-52.434-47.772-128.228-58.938-189.763 0 0-1.636-8.295-2.233-12.307-5.639-35.666-5.976-65.062 3.211-80.143l26.613 16.212c-5.944 9.758-3.39 40.505 4.717 80.107 33.081-5.39 67.78.545 98.827 19.459 22.177 13.51 39.955 32.245 51.656 53.968 62.764 110.603 15.567 215.035-50.901 324.146 0 0-86.053-91.342-152.335-129.287Z" fill="#548235"/></g></g></g><path d="M1862.51 1426.65c6.31-91.34 69.81-170.54 161.81-201.79" stroke="#548235" stroke-width="27.5" stroke-miterlimit="8" fill="none"/></g></svg>